<mxfile host="app.diagrams.net" modified="2023-05-08T06:30:39.014Z" agent="Mozilla/5.0 (Windows NT 10.0; Win64; x64) AppleWebKit/537.36 (KHTML, like Gecko) Chrome/113.0.0.0 Safari/537.36" version="21.1.2" etag="tAz2TeZI7NL8jUg8MLLV" type="github">
  <diagram name="Page-1" id="gQmTqKfSWVDV80w_p_a-">
    <mxGraphModel>
      <root>
        <mxCell id="0" />
        <mxCell id="1" parent="0" />
      </root>
    </mxGraphModel>
  </diagram>
</mxfile>
